<mxfile host="Electron" modified="2023-05-03T10:03:21.685Z" agent="Mozilla/5.0 (Macintosh; Intel Mac OS X 10_15_7) AppleWebKit/537.36 (KHTML, like Gecko) draw.io/21.2.1 Chrome/112.0.5615.87 Electron/24.1.2 Safari/537.36" etag="xlqvU6ESMTbyLlj01NXL" version="21.2.1" type="device">
  <diagram name="Page-1" id="c4acf3e9-155e-7222-9cf6-157b1a14988f">
    <mxGraphModel dx="4265" dy="2740" grid="1" gridSize="10" guides="1" tooltips="1" connect="1" arrows="1" fold="1" page="1" pageScale="1" pageWidth="850" pageHeight="1100" background="none" math="0" shadow="0">
      <root>
        <mxCell id="0" />
        <mxCell id="1" parent="0" />
        <mxCell id="yo9H0s0f9Wk73mWl-thI-4" style="edgeStyle=orthogonalEdgeStyle;rounded=0;orthogonalLoop=1;jettySize=auto;html=1;entryX=0.003;entryY=0.371;entryDx=0;entryDy=0;entryPerimeter=0;" edge="1" parent="1" source="5d2195bd80daf111-12" target="5d2195bd80daf111-20">
          <mxGeometry relative="1" as="geometry" />
        </mxCell>
        <mxCell id="5d2195bd80daf111-12" value="&lt;p style=&quot;margin:0px;margin-top:4px;text-align:center;&quot;&gt;class&amp;nbsp;&lt;b&gt;RetryServiceInitialChecks&lt;/b&gt;&amp;nbsp;&lt;u&gt;@Service&lt;/u&gt;&lt;/p&gt;&lt;hr size=&quot;1&quot;&gt;&lt;p style=&quot;margin:0px;margin-left:4px;&quot;&gt;+ finalChecksClient: FinalChecksClient &lt;font color=&quot;#ea6b66&quot;&gt;(another microservice)&lt;/font&gt;&lt;br&gt;&lt;/p&gt;&lt;hr size=&quot;1&quot;&gt;&lt;p style=&quot;margin:0px;margin-left:4px;&quot;&gt;+ sendRejectDecision((FlowContext flowContext): void&lt;br&gt;&lt;/p&gt;" style="verticalAlign=top;align=left;overflow=fill;fontSize=12;fontFamily=Helvetica;html=1;rounded=0;shadow=0;comic=0;labelBackgroundColor=none;strokeWidth=1" parent="1" vertex="1">
          <mxGeometry x="170" y="1180" width="340" height="100" as="geometry" />
        </mxCell>
        <mxCell id="yo9H0s0f9Wk73mWl-thI-32" style="edgeStyle=orthogonalEdgeStyle;rounded=0;orthogonalLoop=1;jettySize=auto;html=1;entryX=1;entryY=0.25;entryDx=0;entryDy=0;" edge="1" parent="1" source="5d2195bd80daf111-15" target="5d2195bd80daf111-18">
          <mxGeometry relative="1" as="geometry">
            <Array as="points">
              <mxPoint x="530" y="-139" />
            </Array>
          </mxGeometry>
        </mxCell>
        <mxCell id="yo9H0s0f9Wk73mWl-thI-33" value="&lt;font color=&quot;#ff0000&quot; style=&quot;font-size: 16px;&quot;&gt;Spring Injects&amp;nbsp;hierarchy below in the Flow Provider&lt;/font&gt;" style="edgeLabel;html=1;align=center;verticalAlign=middle;resizable=0;points=[];" vertex="1" connectable="0" parent="yo9H0s0f9Wk73mWl-thI-32">
          <mxGeometry x="-0.3759" y="-3" relative="1" as="geometry">
            <mxPoint x="2" y="22" as="offset" />
          </mxGeometry>
        </mxCell>
        <mxCell id="5d2195bd80daf111-15" value="&lt;p style=&quot;margin:0px;margin-top:4px;text-align:center;&quot;&gt;&lt;i&gt;&amp;lt;&amp;lt;abstract class&amp;gt;&amp;gt;&lt;/i&gt;&lt;br&gt;&lt;b&gt;CheckFlow&lt;/b&gt;&lt;br&gt;&lt;/p&gt;&lt;hr size=&quot;1&quot;&gt;&lt;p style=&quot;margin:0px;margin-left:4px;&quot;&gt;+&amp;nbsp;checkFlowName: String&lt;br&gt;+&amp;nbsp;flowActions:&amp;nbsp;List&amp;lt;Pair&amp;lt;&lt;b&gt;&lt;font color=&quot;#ff0000&quot;&gt;CheckAction&lt;/font&gt;&lt;/b&gt;, &lt;b&gt;&lt;font color=&quot;#ff0000&quot;&gt;ErrorAction&lt;/font&gt;&lt;/b&gt;&amp;gt;&amp;gt;&lt;/p&gt;&lt;hr size=&quot;1&quot;&gt;&lt;p style=&quot;margin:0px;margin-left:4px;&quot;&gt;+ abstract sendDataToQueue(FlowContext flowContext): void&lt;br&gt;+ abstract getFlowName(): String&lt;/p&gt;" style="verticalAlign=top;align=left;overflow=fill;fontSize=12;fontFamily=Helvetica;html=1;rounded=0;shadow=0;comic=0;labelBackgroundColor=none;strokeWidth=1" parent="1" vertex="1">
          <mxGeometry x="360" y="10" width="340" height="135" as="geometry" />
        </mxCell>
        <mxCell id="yo9H0s0f9Wk73mWl-thI-56" style="edgeStyle=orthogonalEdgeStyle;rounded=0;orthogonalLoop=1;jettySize=auto;html=1;entryX=1.019;entryY=0.618;entryDx=0;entryDy=0;entryPerimeter=0;" edge="1" parent="1" source="5d2195bd80daf111-18" target="yo9H0s0f9Wk73mWl-thI-51">
          <mxGeometry relative="1" as="geometry" />
        </mxCell>
        <mxCell id="5d2195bd80daf111-18" value="&lt;p style=&quot;margin:0px;margin-top:4px;text-align:center;&quot;&gt;&lt;span style=&quot;border-color: var(--border-color); font-family: Verdana; font-size: 10px;&quot;&gt;class&amp;nbsp;&lt;/span&gt;&lt;b style=&quot;border-color: var(--border-color); font-family: Verdana; font-size: 10px;&quot;&gt;FlowProvider&lt;/b&gt;&amp;nbsp;&lt;u style=&quot;border-color: var(--border-color); font-family: Verdana; font-size: 10px;&quot;&gt;@Component&lt;/u&gt;&lt;br&gt;&lt;/p&gt;&lt;hr size=&quot;1&quot;&gt;&lt;p style=&quot;margin:0px;margin-left:4px;&quot;&gt;- flowMap: Map&amp;lt;String, &lt;font color=&quot;#ff0000&quot;&gt;CheckFlow&lt;/font&gt;&amp;gt;&lt;br&gt;&lt;/p&gt;&lt;hr size=&quot;1&quot;&gt;&lt;p style=&quot;margin:0px;margin-left:4px;&quot;&gt;+ getFullFlow(String flowName): &lt;font color=&quot;#ff0000&quot;&gt;CheckFlow&lt;/font&gt;&lt;br&gt;&lt;br&gt;&lt;/p&gt;" style="verticalAlign=top;align=left;overflow=fill;fontSize=12;fontFamily=Helvetica;html=1;rounded=0;shadow=0;comic=0;labelBackgroundColor=none;strokeWidth=1" parent="1" vertex="1">
          <mxGeometry x="205" y="-160" width="270" height="83" as="geometry" />
        </mxCell>
        <mxCell id="yo9H0s0f9Wk73mWl-thI-29" style="edgeStyle=orthogonalEdgeStyle;rounded=0;orthogonalLoop=1;jettySize=auto;html=1;entryX=0;entryY=0.5;entryDx=0;entryDy=0;" edge="1" parent="1" source="5d2195bd80daf111-19" target="5d2195bd80daf111-15">
          <mxGeometry relative="1" as="geometry" />
        </mxCell>
        <mxCell id="5d2195bd80daf111-19" value="&lt;p style=&quot;margin:0px;margin-top:4px;text-align:center;&quot;&gt;class&amp;nbsp;&lt;b&gt;ApplicantFlow&lt;/b&gt;&amp;nbsp;&lt;u&gt;@Component&lt;/u&gt;&lt;br&gt;&lt;br&gt;&lt;/p&gt;&lt;hr size=&quot;1&quot;&gt;&lt;p style=&quot;margin:0px;margin-left:4px;&quot;&gt;+ FLOW_NAME: String&lt;/p&gt;&lt;p style=&quot;margin:0px;margin-left:4px;&quot;&gt;+&amp;nbsp;FLOW_ACTIONS:&amp;nbsp;List&amp;lt;Pair&amp;lt;String, String&amp;gt;&amp;gt;&lt;br&gt;+ applicantExchange: String&lt;/p&gt;&lt;p style=&quot;margin:0px;margin-left:4px;&quot;&gt;+&amp;nbsp;applicantRoutingKey: String&lt;/p&gt;&lt;p style=&quot;margin:0px;margin-left:4px;&quot;&gt;+&amp;nbsp;messageProducer:&amp;nbsp;MessageProducer&amp;lt;ApplicantDto&amp;gt;&lt;/p&gt;&lt;hr size=&quot;1&quot;&gt;&lt;p style=&quot;margin:0px;margin-left:4px;&quot;&gt;+ sendDataToQueue(FlowContext flowContext): void&lt;br&gt;+ getFlowName(): String&lt;/p&gt;" style="verticalAlign=top;align=left;overflow=fill;fontSize=12;fontFamily=Helvetica;html=1;rounded=0;shadow=0;comic=0;labelBackgroundColor=none;strokeWidth=1" parent="1" vertex="1">
          <mxGeometry x="170" y="300" width="330" height="160" as="geometry" />
        </mxCell>
        <mxCell id="5d2195bd80daf111-20" value="&lt;p style=&quot;margin:0px;margin-top:4px;text-align:center;&quot;&gt;&lt;i&gt;&amp;lt;&amp;lt;abstract class&amp;gt;&amp;gt;&lt;/i&gt;&lt;br&gt;&lt;b&gt;CheckAction&lt;/b&gt;&lt;br&gt;&lt;/p&gt;&lt;hr size=&quot;1&quot;&gt;&lt;p style=&quot;margin:0px;margin-left:4px;&quot;&gt;+ retryServiceInitialChecks: RetryServiceInitialChecks&lt;br&gt;+ flowActions: List&amp;lt;Pair&amp;lt;CheckAction, ErrorAction&amp;gt;&amp;gt;&lt;/p&gt;&lt;hr size=&quot;1&quot;&gt;&lt;p style=&quot;margin:0px;margin-left:4px;&quot;&gt;+ abstract makeCheck(FlowContext context): void&lt;br&gt;+ abstract getActionName(): String&lt;/p&gt;&lt;p style=&quot;margin:0px;margin-left:4px;&quot;&gt;+&amp;nbsp;sendRejectDecision(FlowContext flowContext): void&lt;/p&gt;" style="verticalAlign=top;align=left;overflow=fill;fontSize=12;fontFamily=Helvetica;html=1;rounded=0;shadow=0;comic=0;labelBackgroundColor=none;strokeWidth=1" parent="1" vertex="1">
          <mxGeometry x="360" y="970" width="340" height="140" as="geometry" />
        </mxCell>
        <mxCell id="yo9H0s0f9Wk73mWl-thI-3" style="edgeStyle=orthogonalEdgeStyle;rounded=0;orthogonalLoop=1;jettySize=auto;html=1;entryX=0;entryY=0.681;entryDx=0;entryDy=0;entryPerimeter=0;exitX=0.6;exitY=0.992;exitDx=0;exitDy=0;exitPerimeter=0;" edge="1" parent="1" source="yo9H0s0f9Wk73mWl-thI-1" target="5d2195bd80daf111-19">
          <mxGeometry relative="1" as="geometry" />
        </mxCell>
        <mxCell id="yo9H0s0f9Wk73mWl-thI-1" value="&lt;p style=&quot;margin:0px;margin-top:4px;text-align:center;&quot;&gt;class&amp;nbsp;&lt;b&gt;MessageProducer&lt;/b&gt;&amp;lt;T extends KafkaDto&amp;gt; &lt;u&gt;@Component&lt;/u&gt;&lt;br&gt;&lt;br&gt;&lt;/p&gt;&lt;hr size=&quot;1&quot;&gt;&lt;p style=&quot;margin:0px;margin-left:4px;&quot;&gt;+ amqpTemplate:&amp;nbsp;AmqpTemplate&lt;br&gt;+ field2: Type&lt;/p&gt;&lt;hr size=&quot;1&quot;&gt;&lt;p style=&quot;margin:0px;margin-left:4px;&quot;&gt;+ publish(T payload, String exchange, String routingKey): void&lt;br&gt;&lt;/p&gt;" style="verticalAlign=top;align=left;overflow=fill;fontSize=12;fontFamily=Helvetica;html=1;rounded=0;shadow=0;comic=0;labelBackgroundColor=none;strokeWidth=1" vertex="1" parent="1">
          <mxGeometry x="-220" y="110" width="370" height="130" as="geometry" />
        </mxCell>
        <mxCell id="yo9H0s0f9Wk73mWl-thI-30" style="edgeStyle=orthogonalEdgeStyle;rounded=0;orthogonalLoop=1;jettySize=auto;html=1;entryX=0.926;entryY=0.999;entryDx=0;entryDy=0;entryPerimeter=0;" edge="1" parent="1" source="yo9H0s0f9Wk73mWl-thI-2" target="5d2195bd80daf111-15">
          <mxGeometry relative="1" as="geometry" />
        </mxCell>
        <mxCell id="yo9H0s0f9Wk73mWl-thI-2" value="&lt;p style=&quot;margin:0px;margin-top:4px;text-align:center;&quot;&gt;class&amp;nbsp;&lt;b&gt;DepositFlow&lt;/b&gt;&amp;nbsp;&lt;u&gt;@Component&lt;/u&gt;&lt;br&gt;&lt;br&gt;&lt;/p&gt;&lt;hr size=&quot;1&quot;&gt;&lt;p style=&quot;margin:0px;margin-left:4px;&quot;&gt;+ FLOW_NAME: String&lt;/p&gt;&lt;p style=&quot;margin:0px;margin-left:4px;&quot;&gt;+&amp;nbsp;+ FLOW_ACTIONS: List&amp;lt;Pair&amp;lt;String, String&amp;gt;&amp;gt;&lt;br&gt;+ applicantExchange: String&lt;/p&gt;&lt;p style=&quot;margin:0px;margin-left:4px;&quot;&gt;+&amp;nbsp;applicantRoutingKey: String&lt;/p&gt;&lt;p style=&quot;margin:0px;margin-left:4px;&quot;&gt;+&amp;nbsp;messageProducer:&amp;nbsp;MessageProducer&amp;lt;DepositDto&amp;gt;&lt;/p&gt;&lt;hr size=&quot;1&quot;&gt;&lt;p style=&quot;margin:0px;margin-left:4px;&quot;&gt;+ sendDataToQueue(FlowContext flowContext): void&lt;br&gt;+ getFlowName(): String&lt;/p&gt;" style="verticalAlign=top;align=left;overflow=fill;fontSize=12;fontFamily=Helvetica;html=1;rounded=0;shadow=0;comic=0;labelBackgroundColor=none;strokeWidth=1" vertex="1" parent="1">
          <mxGeometry x="510" y="300" width="330" height="160" as="geometry" />
        </mxCell>
        <mxCell id="yo9H0s0f9Wk73mWl-thI-18" style="edgeStyle=orthogonalEdgeStyle;rounded=0;orthogonalLoop=1;jettySize=auto;html=1;entryX=0;entryY=0.425;entryDx=0;entryDy=0;entryPerimeter=0;" edge="1" parent="1" source="yo9H0s0f9Wk73mWl-thI-5" target="5d2195bd80daf111-19">
          <mxGeometry relative="1" as="geometry" />
        </mxCell>
        <mxCell id="yo9H0s0f9Wk73mWl-thI-43" style="edgeStyle=orthogonalEdgeStyle;rounded=0;orthogonalLoop=1;jettySize=auto;html=1;entryX=0.25;entryY=0;entryDx=0;entryDy=0;dashed=1;strokeWidth=2;" edge="1" parent="1" source="yo9H0s0f9Wk73mWl-thI-5" target="5d2195bd80daf111-20">
          <mxGeometry relative="1" as="geometry" />
        </mxCell>
        <mxCell id="yo9H0s0f9Wk73mWl-thI-5" value="&lt;p style=&quot;margin:0px;margin-top:4px;text-align:center;&quot;&gt;class&amp;nbsp;&lt;b&gt;IncomeAction&lt;/b&gt;&amp;nbsp;&lt;u&gt;@Service&lt;/u&gt;&lt;/p&gt;&lt;hr size=&quot;1&quot;&gt;&lt;p style=&quot;margin:0px;margin-left:4px;&quot;&gt;+ ACTION_NAME: String&lt;br&gt;&lt;/p&gt;&lt;hr size=&quot;1&quot;&gt;&lt;p style=&quot;margin:0px;margin-left:4px;&quot;&gt;+&amp;nbsp;makeCheck&lt;span style=&quot;background-color: initial;&quot;&gt;(FlowContext context): void&lt;/span&gt;&lt;/p&gt;&lt;p style=&quot;margin:0px;margin-left:4px;&quot;&gt;&lt;span style=&quot;background-color: initial;&quot;&gt;+&amp;nbsp;&lt;/span&gt;getActionName(): String&lt;/p&gt;" style="verticalAlign=top;align=left;overflow=fill;fontSize=12;fontFamily=Helvetica;html=1;rounded=0;shadow=0;comic=0;labelBackgroundColor=none;strokeWidth=1" vertex="1" parent="1">
          <mxGeometry x="20" y="860" width="240" height="110" as="geometry" />
        </mxCell>
        <mxCell id="yo9H0s0f9Wk73mWl-thI-19" style="edgeStyle=orthogonalEdgeStyle;rounded=0;orthogonalLoop=1;jettySize=auto;html=1;" edge="1" parent="1" source="yo9H0s0f9Wk73mWl-thI-6">
          <mxGeometry relative="1" as="geometry">
            <mxPoint x="140" y="450" as="targetPoint" />
          </mxGeometry>
        </mxCell>
        <mxCell id="yo9H0s0f9Wk73mWl-thI-20" value="&lt;font style=&quot;font-size: 14px;&quot; color=&quot;#ea6b66&quot;&gt;Only Class.ACTION_NAME&lt;/font&gt;" style="edgeLabel;html=1;align=center;verticalAlign=middle;resizable=0;points=[];" vertex="1" connectable="0" parent="yo9H0s0f9Wk73mWl-thI-19">
          <mxGeometry x="0.366" y="3" relative="1" as="geometry">
            <mxPoint x="3" y="-16" as="offset" />
          </mxGeometry>
        </mxCell>
        <mxCell id="yo9H0s0f9Wk73mWl-thI-6" value="&lt;p style=&quot;margin:0px;margin-top:4px;text-align:center;&quot;&gt;class &lt;b&gt;MoratoriumAction&lt;/b&gt;&amp;nbsp;&lt;u&gt;@Service&lt;/u&gt;&lt;/p&gt;&lt;hr size=&quot;1&quot;&gt;&lt;p style=&quot;margin:0px;margin-left:4px;&quot;&gt;+ ACTION_NAME: String&lt;br&gt;&lt;/p&gt;&lt;hr size=&quot;1&quot;&gt;&lt;p style=&quot;margin:0px;margin-left:4px;&quot;&gt;+&amp;nbsp;makeCheck&lt;span style=&quot;background-color: initial;&quot;&gt;(FlowContext context): void&lt;/span&gt;&lt;/p&gt;&lt;p style=&quot;margin:0px;margin-left:4px;&quot;&gt;&lt;span style=&quot;background-color: initial;&quot;&gt;+&amp;nbsp;&lt;/span&gt;getActionName(): String&lt;/p&gt;" style="verticalAlign=top;align=left;overflow=fill;fontSize=12;fontFamily=Helvetica;html=1;rounded=0;shadow=0;comic=0;labelBackgroundColor=none;strokeWidth=1" vertex="1" parent="1">
          <mxGeometry x="-220" y="470" width="240" height="110" as="geometry" />
        </mxCell>
        <mxCell id="yo9H0s0f9Wk73mWl-thI-10" value="&lt;p style=&quot;margin:0px;margin-top:4px;text-align:center;&quot;&gt;class &lt;b&gt;BeanLoader&lt;/b&gt;&amp;nbsp;&lt;u&gt;@Component&lt;/u&gt;&lt;/p&gt;&lt;hr size=&quot;1&quot;&gt;&lt;p style=&quot;margin:0px;margin-left:4px;&quot;&gt;+ applicationContext: ApplicationContext&lt;br&gt;&lt;/p&gt;&lt;hr size=&quot;1&quot;&gt;&lt;p style=&quot;margin:0px;margin-left:4px;&quot;&gt;+ getBeanFromApplicationContext(String beanName, Class&amp;lt;T&amp;gt; klass): T&lt;br&gt;&lt;br&gt;&lt;/p&gt;" style="verticalAlign=top;align=left;overflow=fill;fontSize=12;fontFamily=Helvetica;html=1;rounded=0;shadow=0;comic=0;labelBackgroundColor=none;strokeWidth=1" vertex="1" parent="1">
          <mxGeometry x="880" y="10" width="470" height="90" as="geometry" />
        </mxCell>
        <mxCell id="yo9H0s0f9Wk73mWl-thI-13" style="edgeStyle=orthogonalEdgeStyle;rounded=0;orthogonalLoop=1;jettySize=auto;html=1;entryX=1;entryY=0.4;entryDx=0;entryDy=0;entryPerimeter=0;" edge="1" parent="1" source="yo9H0s0f9Wk73mWl-thI-11" target="yo9H0s0f9Wk73mWl-thI-2">
          <mxGeometry relative="1" as="geometry" />
        </mxCell>
        <mxCell id="yo9H0s0f9Wk73mWl-thI-15" value="&lt;font style=&quot;font-size: 14px;&quot; color=&quot;#ea6b66&quot;&gt;Only Class.ACTION_NAME&lt;/font&gt;" style="edgeLabel;html=1;align=center;verticalAlign=middle;resizable=0;points=[];" vertex="1" connectable="0" parent="yo9H0s0f9Wk73mWl-thI-13">
          <mxGeometry x="0.763" y="2" relative="1" as="geometry">
            <mxPoint x="76" y="24" as="offset" />
          </mxGeometry>
        </mxCell>
        <mxCell id="yo9H0s0f9Wk73mWl-thI-44" style="edgeStyle=orthogonalEdgeStyle;rounded=0;orthogonalLoop=1;jettySize=auto;html=1;entryX=0.75;entryY=0;entryDx=0;entryDy=0;dashed=1;strokeWidth=2;" edge="1" parent="1" source="yo9H0s0f9Wk73mWl-thI-11" target="5d2195bd80daf111-20">
          <mxGeometry relative="1" as="geometry" />
        </mxCell>
        <mxCell id="yo9H0s0f9Wk73mWl-thI-11" value="&lt;p style=&quot;margin:0px;margin-top:4px;text-align:center;&quot;&gt;class&amp;nbsp;&lt;b&gt;ReservedDepositAction&lt;/b&gt;&lt;span style=&quot;background-color: initial;&quot;&gt;&amp;nbsp;&lt;/span&gt;&lt;u style=&quot;background-color: initial;&quot;&gt;@Service&lt;/u&gt;&lt;/p&gt;&lt;hr size=&quot;1&quot;&gt;&lt;p style=&quot;margin:0px;margin-left:4px;&quot;&gt;+ ACTION_NAME: String&lt;br&gt;&lt;/p&gt;&lt;hr size=&quot;1&quot;&gt;&lt;p style=&quot;margin:0px;margin-left:4px;&quot;&gt;+&amp;nbsp;makeCheck&lt;span style=&quot;background-color: initial;&quot;&gt;(FlowContext context): void&lt;/span&gt;&lt;/p&gt;&lt;p style=&quot;margin:0px;margin-left:4px;&quot;&gt;&lt;span style=&quot;background-color: initial;&quot;&gt;+&amp;nbsp;&lt;/span&gt;getActionName(): String&lt;/p&gt;" style="verticalAlign=top;align=left;overflow=fill;fontSize=12;fontFamily=Helvetica;html=1;rounded=0;shadow=0;comic=0;labelBackgroundColor=none;strokeWidth=1" vertex="1" parent="1">
          <mxGeometry x="800" y="570" width="240" height="110" as="geometry" />
        </mxCell>
        <mxCell id="yo9H0s0f9Wk73mWl-thI-14" style="edgeStyle=orthogonalEdgeStyle;rounded=0;orthogonalLoop=1;jettySize=auto;html=1;" edge="1" parent="1" source="yo9H0s0f9Wk73mWl-thI-12">
          <mxGeometry relative="1" as="geometry">
            <mxPoint x="920" y="420" as="targetPoint" />
          </mxGeometry>
        </mxCell>
        <mxCell id="yo9H0s0f9Wk73mWl-thI-45" style="edgeStyle=orthogonalEdgeStyle;rounded=0;orthogonalLoop=1;jettySize=auto;html=1;entryX=0.618;entryY=0;entryDx=0;entryDy=0;entryPerimeter=0;dashed=1;strokeWidth=2;" edge="1" parent="1" source="yo9H0s0f9Wk73mWl-thI-12" target="5d2195bd80daf111-20">
          <mxGeometry relative="1" as="geometry">
            <Array as="points">
              <mxPoint x="580" y="495" />
              <mxPoint x="580" y="970" />
            </Array>
          </mxGeometry>
        </mxCell>
        <mxCell id="yo9H0s0f9Wk73mWl-thI-12" value="&lt;p style=&quot;margin:0px;margin-top:4px;text-align:center;&quot;&gt;class&amp;nbsp;&lt;b&gt;ConditionsAction&lt;/b&gt;&lt;span style=&quot;background-color: initial;&quot;&gt;&amp;nbsp;&lt;/span&gt;&lt;u style=&quot;background-color: initial;&quot;&gt;@Service&lt;/u&gt;&lt;/p&gt;&lt;hr size=&quot;1&quot;&gt;&lt;p style=&quot;margin:0px;margin-left:4px;&quot;&gt;+ ACTION_NAME: String&lt;br&gt;&lt;/p&gt;&lt;hr size=&quot;1&quot;&gt;&lt;p style=&quot;margin:0px;margin-left:4px;&quot;&gt;+&amp;nbsp;makeCheck&lt;span style=&quot;background-color: initial;&quot;&gt;(FlowContext context): void&lt;/span&gt;&lt;/p&gt;&lt;p style=&quot;margin:0px;margin-left:4px;&quot;&gt;&lt;span style=&quot;background-color: initial;&quot;&gt;+&amp;nbsp;&lt;/span&gt;getActionName(): String&lt;/p&gt;" style="verticalAlign=top;align=left;overflow=fill;fontSize=12;fontFamily=Helvetica;html=1;rounded=0;shadow=0;comic=0;labelBackgroundColor=none;strokeWidth=1" vertex="1" parent="1">
          <mxGeometry x="940" y="440" width="240" height="110" as="geometry" />
        </mxCell>
        <mxCell id="yo9H0s0f9Wk73mWl-thI-35" style="edgeStyle=orthogonalEdgeStyle;rounded=0;orthogonalLoop=1;jettySize=auto;html=1;" edge="1" parent="1" source="yo9H0s0f9Wk73mWl-thI-21">
          <mxGeometry relative="1" as="geometry">
            <mxPoint x="140" y="570" as="targetPoint" />
          </mxGeometry>
        </mxCell>
        <mxCell id="yo9H0s0f9Wk73mWl-thI-50" style="edgeStyle=orthogonalEdgeStyle;rounded=0;orthogonalLoop=1;jettySize=auto;html=1;entryX=0;entryY=0.75;entryDx=0;entryDy=0;exitX=0.069;exitY=0.995;exitDx=0;exitDy=0;exitPerimeter=0;dashed=1;strokeWidth=2;" edge="1" parent="1" source="yo9H0s0f9Wk73mWl-thI-21" target="yo9H0s0f9Wk73mWl-thI-46">
          <mxGeometry relative="1" as="geometry" />
        </mxCell>
        <mxCell id="yo9H0s0f9Wk73mWl-thI-21" value="&lt;p style=&quot;margin:0px;margin-top:4px;text-align:center;&quot;&gt;class &lt;b&gt;MoratoriumErrorAction&lt;/b&gt;&amp;nbsp;&lt;u&gt;@Service&lt;/u&gt;&lt;/p&gt;&lt;hr size=&quot;1&quot;&gt;&lt;p style=&quot;margin:0px;margin-left:4px;&quot;&gt;+ ACTION_NAME: String&lt;br&gt;&lt;/p&gt;&lt;hr size=&quot;1&quot;&gt;&lt;p style=&quot;margin:0px;margin-left:4px;&quot;&gt;+&amp;nbsp;makeCheck&lt;span style=&quot;background-color: initial;&quot;&gt;(FlowContext context): void&lt;/span&gt;&lt;/p&gt;&lt;p style=&quot;margin:0px;margin-left:4px;&quot;&gt;&lt;span style=&quot;background-color: initial;&quot;&gt;+&amp;nbsp;&lt;/span&gt;getActionName(): String&lt;/p&gt;" style="verticalAlign=top;align=left;overflow=fill;fontSize=12;fontFamily=Helvetica;html=1;rounded=0;shadow=0;comic=0;labelBackgroundColor=none;strokeWidth=1" vertex="1" parent="1">
          <mxGeometry x="-220" y="610" width="240" height="110" as="geometry" />
        </mxCell>
        <mxCell id="yo9H0s0f9Wk73mWl-thI-36" style="edgeStyle=orthogonalEdgeStyle;rounded=0;orthogonalLoop=1;jettySize=auto;html=1;" edge="1" parent="1" source="yo9H0s0f9Wk73mWl-thI-22">
          <mxGeometry relative="1" as="geometry">
            <mxPoint x="140" y="690" as="targetPoint" />
          </mxGeometry>
        </mxCell>
        <mxCell id="yo9H0s0f9Wk73mWl-thI-49" style="edgeStyle=orthogonalEdgeStyle;rounded=0;orthogonalLoop=1;jettySize=auto;html=1;entryX=0;entryY=0.5;entryDx=0;entryDy=0;exitX=0.183;exitY=0.995;exitDx=0;exitDy=0;exitPerimeter=0;dashed=1;strokeWidth=2;" edge="1" parent="1" source="yo9H0s0f9Wk73mWl-thI-22" target="yo9H0s0f9Wk73mWl-thI-46">
          <mxGeometry relative="1" as="geometry">
            <mxPoint x="-110" y="910" as="sourcePoint" />
            <Array as="points">
              <mxPoint x="-110" y="1390" />
            </Array>
          </mxGeometry>
        </mxCell>
        <mxCell id="yo9H0s0f9Wk73mWl-thI-22" value="&lt;p style=&quot;margin:0px;margin-top:4px;text-align:center;&quot;&gt;class &lt;b&gt;IncomeErrorAction&lt;/b&gt;&amp;nbsp;&lt;u&gt;@Service&lt;/u&gt;&lt;/p&gt;&lt;hr size=&quot;1&quot;&gt;&lt;p style=&quot;margin:0px;margin-left:4px;&quot;&gt;+ ACTION_NAME: String&lt;br&gt;&lt;/p&gt;&lt;hr size=&quot;1&quot;&gt;&lt;p style=&quot;margin:0px;margin-left:4px;&quot;&gt;+&amp;nbsp;makeCheck&lt;span style=&quot;background-color: initial;&quot;&gt;(FlowContext context): void&lt;/span&gt;&lt;/p&gt;&lt;p style=&quot;margin:0px;margin-left:4px;&quot;&gt;&lt;span style=&quot;background-color: initial;&quot;&gt;+&amp;nbsp;&lt;/span&gt;getActionName(): String&lt;/p&gt;" style="verticalAlign=top;align=left;overflow=fill;fontSize=12;fontFamily=Helvetica;html=1;rounded=0;shadow=0;comic=0;labelBackgroundColor=none;strokeWidth=1" vertex="1" parent="1">
          <mxGeometry x="-155" y="730" width="240" height="110" as="geometry" />
        </mxCell>
        <mxCell id="yo9H0s0f9Wk73mWl-thI-25" value="" style="endArrow=classic;html=1;rounded=0;entryX=0.25;entryY=0;entryDx=0;entryDy=0;dashed=1;exitX=0.999;exitY=0.848;exitDx=0;exitDy=0;exitPerimeter=0;strokeWidth=2;" edge="1" parent="1" source="yo9H0s0f9Wk73mWl-thI-6" target="5d2195bd80daf111-20">
          <mxGeometry width="50" height="50" relative="1" as="geometry">
            <mxPoint x="30" y="560" as="sourcePoint" />
            <mxPoint x="10" y="630" as="targetPoint" />
            <Array as="points">
              <mxPoint x="440" y="563" />
            </Array>
          </mxGeometry>
        </mxCell>
        <mxCell id="yo9H0s0f9Wk73mWl-thI-48" style="edgeStyle=orthogonalEdgeStyle;rounded=0;orthogonalLoop=1;jettySize=auto;html=1;entryX=1;entryY=0.5;entryDx=0;entryDy=0;dashed=1;strokeWidth=2;" edge="1" parent="1" source="yo9H0s0f9Wk73mWl-thI-39" target="yo9H0s0f9Wk73mWl-thI-46">
          <mxGeometry relative="1" as="geometry">
            <Array as="points">
              <mxPoint x="1070" y="1390" />
            </Array>
          </mxGeometry>
        </mxCell>
        <mxCell id="yo9H0s0f9Wk73mWl-thI-39" value="&lt;p style=&quot;margin:0px;margin-top:4px;text-align:center;&quot;&gt;class&amp;nbsp;&lt;span style=&quot;background-color: initial;&quot;&gt;&lt;b&gt;ReservedDepositErrorAction&lt;/b&gt;&amp;nbsp;&lt;/span&gt;&lt;u style=&quot;background-color: initial;&quot;&gt;@Service&lt;/u&gt;&lt;/p&gt;&lt;hr size=&quot;1&quot;&gt;&lt;p style=&quot;margin:0px;margin-left:4px;&quot;&gt;+ ACTION_NAME: String&lt;br&gt;&lt;/p&gt;&lt;hr size=&quot;1&quot;&gt;&lt;p style=&quot;margin:0px;margin-left:4px;&quot;&gt;+&amp;nbsp;makeCheck&lt;span style=&quot;background-color: initial;&quot;&gt;(FlowContext context): void&lt;/span&gt;&lt;/p&gt;&lt;p style=&quot;margin:0px;margin-left:4px;&quot;&gt;&lt;span style=&quot;background-color: initial;&quot;&gt;+&amp;nbsp;&lt;/span&gt;getActionName(): String&lt;/p&gt;" style="verticalAlign=top;align=left;overflow=fill;fontSize=12;fontFamily=Helvetica;html=1;rounded=0;shadow=0;comic=0;labelBackgroundColor=none;strokeWidth=1" vertex="1" parent="1">
          <mxGeometry x="910" y="690" width="280" height="110" as="geometry" />
        </mxCell>
        <mxCell id="yo9H0s0f9Wk73mWl-thI-47" style="edgeStyle=orthogonalEdgeStyle;rounded=0;orthogonalLoop=1;jettySize=auto;html=1;exitX=0.5;exitY=1;exitDx=0;exitDy=0;entryX=1;entryY=0.75;entryDx=0;entryDy=0;dashed=1;strokeWidth=2;" edge="1" parent="1" source="yo9H0s0f9Wk73mWl-thI-40" target="yo9H0s0f9Wk73mWl-thI-46">
          <mxGeometry relative="1" as="geometry">
            <mxPoint x="850" y="1420" as="targetPoint" />
          </mxGeometry>
        </mxCell>
        <mxCell id="yo9H0s0f9Wk73mWl-thI-40" value="&lt;p style=&quot;margin:0px;margin-top:4px;text-align:center;&quot;&gt;class&amp;nbsp;&lt;span style=&quot;background-color: initial;&quot;&gt;&lt;b&gt;ConditionsErrorAction&lt;/b&gt;&amp;nbsp;&lt;/span&gt;&lt;u style=&quot;background-color: initial;&quot;&gt;@Service&lt;/u&gt;&lt;/p&gt;&lt;hr size=&quot;1&quot;&gt;&lt;p style=&quot;margin:0px;margin-left:4px;&quot;&gt;+ ACTION_NAME: String&lt;br&gt;&lt;/p&gt;&lt;hr size=&quot;1&quot;&gt;&lt;p style=&quot;margin:0px;margin-left:4px;&quot;&gt;+&amp;nbsp;makeCheck&lt;span style=&quot;background-color: initial;&quot;&gt;(FlowContext context): void&lt;/span&gt;&lt;/p&gt;&lt;p style=&quot;margin:0px;margin-left:4px;&quot;&gt;&lt;span style=&quot;background-color: initial;&quot;&gt;+&amp;nbsp;&lt;/span&gt;getActionName(): String&lt;/p&gt;" style="verticalAlign=top;align=left;overflow=fill;fontSize=12;fontFamily=Helvetica;html=1;rounded=0;shadow=0;comic=0;labelBackgroundColor=none;strokeWidth=1" vertex="1" parent="1">
          <mxGeometry x="730" y="840" width="240" height="110" as="geometry" />
        </mxCell>
        <mxCell id="yo9H0s0f9Wk73mWl-thI-46" value="&lt;p style=&quot;margin:0px;margin-top:4px;text-align:center;&quot;&gt;&lt;i&gt;&amp;lt;&amp;lt;Interface&amp;gt;&amp;gt;&lt;/i&gt;&lt;br&gt;&lt;b&gt;ErrorAction&lt;/b&gt;&lt;/p&gt;&lt;hr size=&quot;1&quot;&gt;&lt;p style=&quot;margin:0px;margin-left:4px;&quot;&gt;&lt;br&gt;&lt;/p&gt;&lt;p style=&quot;margin:0px;margin-left:4px;&quot;&gt;+ handleError(FlowContext context): void&lt;br&gt;+ getActionName(): String&lt;/p&gt;" style="verticalAlign=top;align=left;overflow=fill;fontSize=12;fontFamily=Helvetica;html=1;rounded=0;shadow=0;comic=0;labelBackgroundColor=none;strokeWidth=1" vertex="1" parent="1">
          <mxGeometry x="370" y="1330" width="330" height="120" as="geometry" />
        </mxCell>
        <mxCell id="yo9H0s0f9Wk73mWl-thI-62" style="edgeStyle=orthogonalEdgeStyle;rounded=0;orthogonalLoop=1;jettySize=auto;html=1;entryX=0;entryY=0.5;entryDx=0;entryDy=0;" edge="1" parent="1" source="yo9H0s0f9Wk73mWl-thI-51" target="yo9H0s0f9Wk73mWl-thI-61">
          <mxGeometry relative="1" as="geometry" />
        </mxCell>
        <mxCell id="yo9H0s0f9Wk73mWl-thI-51" value="&lt;p style=&quot;margin:0px;margin-top:4px;text-align:center;&quot;&gt;class&amp;nbsp;&lt;b&gt;InitialChecksService&lt;/b&gt;&lt;span style=&quot;background-color: initial;&quot;&gt;&amp;nbsp;&lt;/span&gt;&lt;u style=&quot;background-color: initial;&quot;&gt;@Service&lt;/u&gt;&lt;/p&gt;&lt;hr size=&quot;1&quot;&gt;&lt;p style=&quot;margin:0px;margin-left:4px;&quot;&gt;+&amp;nbsp;threadsPerProcessor&lt;span style=&quot;background-color: initial;&quot;&gt;: int&lt;/span&gt;&lt;/p&gt;&lt;p style=&quot;margin:0px;margin-left:4px;&quot;&gt;+&amp;nbsp;applicantFlow&lt;span style=&quot;background-color: initial;&quot;&gt;:&amp;nbsp;&lt;/span&gt;ApplicantFlow&lt;/p&gt;&lt;p style=&quot;margin:0px;margin-left:4px;&quot;&gt;+&amp;nbsp;depositFlow:&amp;nbsp;DepositFlow&lt;/p&gt;&lt;p style=&quot;margin:0px;margin-left:4px;&quot;&gt;+&amp;nbsp;executorService:&amp;nbsp;ExecutorService&lt;/p&gt;&lt;p style=&quot;margin:0px;margin-left:4px;&quot;&gt;+&amp;nbsp;checkEngine: CheckEngine&lt;/p&gt;&lt;p style=&quot;margin:0px;margin-left:4px;&quot;&gt;&lt;b&gt;+&amp;nbsp;flowProvider:&amp;nbsp;FlowProvider&lt;/b&gt;&lt;/p&gt;&lt;p style=&quot;margin:0px;margin-left:4px;&quot;&gt;+&amp;nbsp;checkRepository:&amp;nbsp;CheckRepository&lt;/p&gt;&lt;hr size=&quot;1&quot;&gt;&lt;p style=&quot;margin:0px;margin-left:4px;&quot;&gt;+ checkApplication(ApplicationCheck applicationCheck&lt;span style=&quot;background-color: initial;&quot;&gt;): void&lt;/span&gt;&lt;/p&gt;" style="verticalAlign=top;align=left;overflow=fill;fontSize=12;fontFamily=Helvetica;html=1;rounded=0;shadow=0;comic=0;labelBackgroundColor=none;strokeWidth=1" vertex="1" parent="1">
          <mxGeometry x="-600" y="-230" width="350" height="178.5" as="geometry" />
        </mxCell>
        <mxCell id="yo9H0s0f9Wk73mWl-thI-52" value="" style="endArrow=classic;html=1;rounded=0;entryX=0.25;entryY=1;entryDx=0;entryDy=0;exitX=0.831;exitY=-0.013;exitDx=0;exitDy=0;exitPerimeter=0;" edge="1" parent="1" source="5d2195bd80daf111-19" target="yo9H0s0f9Wk73mWl-thI-10">
          <mxGeometry width="50" height="50" relative="1" as="geometry">
            <mxPoint x="610" y="170" as="sourcePoint" />
            <mxPoint x="660" y="120" as="targetPoint" />
          </mxGeometry>
        </mxCell>
        <mxCell id="yo9H0s0f9Wk73mWl-thI-53" value="" style="endArrow=classic;html=1;rounded=0;entryX=0.5;entryY=1;entryDx=0;entryDy=0;exitX=1;exitY=0.25;exitDx=0;exitDy=0;" edge="1" parent="1" source="yo9H0s0f9Wk73mWl-thI-2" target="yo9H0s0f9Wk73mWl-thI-10">
          <mxGeometry width="50" height="50" relative="1" as="geometry">
            <mxPoint x="930" y="250" as="sourcePoint" />
            <mxPoint x="980" y="200" as="targetPoint" />
          </mxGeometry>
        </mxCell>
        <mxCell id="yo9H0s0f9Wk73mWl-thI-54" value="&lt;font style=&quot;font-size: 17px;&quot;&gt;&lt;b&gt;BeanLoader&lt;/b&gt; in constructor of &lt;b&gt;ApplicantFlow&lt;/b&gt; and &lt;b&gt;DepositFlow&lt;/b&gt; takes String names of &lt;b&gt;Actions&lt;/b&gt; in those flows and get those &lt;b&gt;@Bean&lt;/b&gt; from ApplicationContext into &lt;b&gt;CheckFlow&lt;/b&gt;&lt;/font&gt;" style="text;html=1;strokeColor=default;fillColor=none;align=center;verticalAlign=middle;whiteSpace=wrap;rounded=0;strokeWidth=2;perimeterSpacing=0;" vertex="1" parent="1">
          <mxGeometry x="710" y="160" width="490" height="90" as="geometry" />
        </mxCell>
        <mxCell id="yo9H0s0f9Wk73mWl-thI-58" style="edgeStyle=orthogonalEdgeStyle;rounded=0;orthogonalLoop=1;jettySize=auto;html=1;entryX=0;entryY=0.5;entryDx=0;entryDy=0;" edge="1" parent="1" source="yo9H0s0f9Wk73mWl-thI-57" target="yo9H0s0f9Wk73mWl-thI-51">
          <mxGeometry relative="1" as="geometry" />
        </mxCell>
        <mxCell id="yo9H0s0f9Wk73mWl-thI-60" value="&lt;b&gt;&lt;font color=&quot;#ff0000&quot; style=&quot;font-size: 19px;&quot;&gt;Flow starts here&lt;/font&gt;&lt;/b&gt;" style="edgeLabel;html=1;align=center;verticalAlign=middle;resizable=0;points=[];" vertex="1" connectable="0" parent="yo9H0s0f9Wk73mWl-thI-58">
          <mxGeometry x="-0.5074" relative="1" as="geometry">
            <mxPoint y="-1" as="offset" />
          </mxGeometry>
        </mxCell>
        <mxCell id="yo9H0s0f9Wk73mWl-thI-57" value="&lt;p style=&quot;margin:0px;margin-top:4px;text-align:center;&quot;&gt;class &lt;b&gt;CheckEngine&lt;/b&gt;&amp;nbsp;&lt;u&gt;@Component&lt;/u&gt;&lt;/p&gt;&lt;hr size=&quot;1&quot;&gt;&lt;p style=&quot;margin:0px;margin-left:4px;&quot;&gt;&lt;br&gt;&lt;/p&gt;&lt;p style=&quot;margin:0px;margin-left:4px;&quot;&gt;+&amp;nbsp;startEngine(&lt;font color=&quot;#ff0000&quot;&gt;CheckFlow&lt;/font&gt; checkFlow, ApplicationCheck applicationCheck)&lt;span style=&quot;background-color: initial;&quot;&gt;: void&lt;/span&gt;&lt;/p&gt;" style="verticalAlign=top;align=left;overflow=fill;fontSize=12;fontFamily=Helvetica;html=1;rounded=0;shadow=0;comic=0;labelBackgroundColor=none;strokeWidth=1" vertex="1" parent="1">
          <mxGeometry x="-935" y="80" width="510" height="80" as="geometry" />
        </mxCell>
        <mxCell id="yo9H0s0f9Wk73mWl-thI-61" value="&lt;p style=&quot;margin:0px;margin-top:4px;text-align:center;&quot;&gt;class&amp;nbsp;&lt;b&gt;InitialChecksController&lt;/b&gt;&lt;span style=&quot;background-color: initial;&quot;&gt;&amp;nbsp;&lt;/span&gt;&lt;u&gt;&lt;span style=&quot;background-color: initial;&quot;&gt;@&lt;/span&gt;RestController&lt;/u&gt;&lt;/p&gt;&lt;hr size=&quot;1&quot;&gt;&lt;p style=&quot;margin:0px;margin-left:4px;&quot;&gt;+&amp;nbsp;initialChecksService:&amp;nbsp;InitialChecksService&lt;/p&gt;&lt;hr size=&quot;1&quot;&gt;&lt;p style=&quot;margin:0px;margin-left:4px;&quot;&gt;+&amp;nbsp;checkApplication&lt;span style=&quot;background-color: initial;&quot;&gt;(&lt;/span&gt;String requestId,&amp;nbsp;ApplicationRequest applicationRequest&lt;span style=&quot;background-color: initial;&quot;&gt;): ResponseEntity&amp;lt;String&amp;gt;&lt;/span&gt;&lt;/p&gt;" style="verticalAlign=top;align=left;overflow=fill;fontSize=12;fontFamily=Helvetica;html=1;rounded=0;shadow=0;comic=0;labelBackgroundColor=none;strokeWidth=1" vertex="1" parent="1">
          <mxGeometry x="-170" y="-400" width="560" height="90" as="geometry" />
        </mxCell>
        <mxCell id="yo9H0s0f9Wk73mWl-thI-63" value="&lt;font style=&quot;font-size: 16px;&quot;&gt;&lt;b&gt;flowProvider&lt;/b&gt;.getFullFlow(ApplicantFlow.FLOW_NAME)&lt;br&gt;&lt;b&gt;flowProvider&lt;/b&gt;.getFullFlow(DepositFlow.FLOW_NAME)&lt;/font&gt;" style="text;html=1;align=center;verticalAlign=middle;resizable=0;points=[];autosize=1;strokeColor=default;fillColor=none;" vertex="1" parent="1">
          <mxGeometry x="-225" y="-110" width="420" height="50" as="geometry" />
        </mxCell>
      </root>
    </mxGraphModel>
  </diagram>
</mxfile>
